<?xml version="1.0"?>
<svg xmlns="http://www.w3.org/2000/svg" xmlns:xlink="http://www.w3.org/1999/xlink" xmlns:svgjs="http://svgjs.com/svgjs" version="1.1" width="512" height="512" x="0" y="0" viewBox="0 0 24 24" style="enable-background:new 0 0 512 512" xml:space="preserve" class=""><g transform="matrix(-1,1.2246467991473532e-16,-1.2246467991473532e-16,-1,24,24)"><path xmlns="http://www.w3.org/2000/svg" d="m17 5h-10c-3.859 0-7 3.14-7 7s3.141 7 7 7h10c3.859 0 7-3.14 7-7s-3.141-7-7-7z" fill="#57245e" data-original="#00bcd4" style="" class=""/><circle xmlns="http://www.w3.org/2000/svg" cx="7" cy="12" fill="#8e4e99" r="4" data-original="#fafafa" style="" class=""/><path xmlns="http://www.w3.org/2000/svg" d="m17 19h-10c-3.86 0-7-3.141-7-7s3.14-7 7-7h10c3.86 0 7 3.141 7 7s-3.14 7-7 7zm-10-12.5c-3.033 0-5.5 2.468-5.5 5.5s2.467 5.5 5.5 5.5h10c3.033 0 5.5-2.468 5.5-5.5s-2.467-5.5-5.5-5.5z" fill="#ffffff" data-original="#000000" style="" class=""/><path xmlns="http://www.w3.org/2000/svg" d="m7 16c-2.206 0-4-1.794-4-4s1.794-4 4-4 4 1.794 4 4-1.794 4-4 4zm0-6.5c-1.378 0-2.5 1.121-2.5 2.5s1.122 2.5 2.5 2.5 2.5-1.121 2.5-2.5-1.122-2.5-2.5-2.5z" fill="#ffffff" data-original="#000000" style="" class=""/></g></svg>
